# 3ds Max Wavefront OBJ Exporter v0.97b - (c)2007 guruware
# File Created: 15.07.2016 20:12:20

mtllib fixedLine002.mtl

#
# object Line002
#

v  -1.4884 -2.2188 0.0000
v  1.4420 -2.2188 0.0000
v  1.4420 -2.2188 1.0000
v  -1.4884 -2.2188 1.0000
v  2.0802 -0.1783 0.0000
v  2.0802 -0.1783 1.0000
v  1.5948 0.6217 0.0000
v  1.5948 0.6217 1.0000
v  1.5746 0.6142 0.0000
v  1.5746 0.6142 1.0000
v  1.5187 0.5822 0.0000
v  1.5187 0.5822 1.0000
v  1.4330 0.5300 0.0000
v  1.4330 0.5300 1.0000
v  1.3235 0.4615 0.0000
v  1.3235 0.4615 1.0000
v  1.1962 0.3809 0.0000
v  1.1962 0.3809 1.0000
v  1.0569 0.2921 0.0000
v  1.0569 0.2921 1.0000
v  0.9117 0.1993 0.0000
v  0.9117 0.1993 1.0000
v  0.8757 1.0532 0.0000
v  0.8757 1.0532 1.0000
v  0.4257 1.4920 0.0000
v  0.4257 1.4920 1.0000
v  0.0218 1.8982 0.0000
v  0.0218 1.8982 1.0000
v  -0.8952 1.0622 0.0000
v  -0.8952 1.0622 1.0000
v  -0.8502 -0.4210 0.0000
v  -0.8502 -0.4210 1.0000
v  -1.5963 -0.0974 0.0000
v  -1.5963 -0.0974 1.0000
v  -2.1356 -0.7536 0.0000
v  -2.1356 -0.7536 1.0000
# 36 vertices

vn 0.0000 -1.0000 0.0000
vn 0.9544 -0.2985 0.0000
vn 0.8550 0.5187 0.0000
vn 0.3269 0.9451 0.0000
vn -0.4253 0.9051 0.0000
vn -0.5083 0.8612 0.0000
vn -0.5254 0.8509 0.0000
vn -0.5326 0.8464 0.0000
vn -0.5362 0.8441 0.0000
vn -0.5380 0.8429 0.0000
vn -0.5386 0.8426 0.0000
vn 0.9991 0.0421 0.0000
vn 0.6981 0.7160 0.0000
vn 0.7091 0.7051 0.0000
vn -0.6737 0.7390 0.0000
vn -0.9995 -0.0303 0.0000
vn 0.3979 0.9174 0.0000
vn -0.7726 0.6349 0.0000
vn -0.9147 -0.4040 0.0000
vn 0.0000 0.0000 -1.0000
vn 0.0000 0.0000 1.0000
# 21 vertex normals

g Line002
usemtl Material__27
s 1
f 1//1 2//1 3//1 4//1 
s 4
f 2//2 5//2 6//2 3//2 
s 2
f 5//3 7//4 8//4 6//3 
f 7//4 9//5 10//5 8//4 
f 9//5 11//6 12//6 10//5 
f 11//6 13//7 14//7 12//6 
f 13//7 15//8 16//8 14//7 
f 15//8 17//9 18//9 16//8 
f 17//9 19//10 20//10 18//9 
f 19//10 21//11 22//11 20//10 
s 4
f 21//12 23//12 24//12 22//12 
s 2
f 23//13 25//13 26//13 24//13 
s 4
f 25//14 27//14 28//14 26//14 
s 2
f 27//15 29//15 30//15 28//15 
s 4
f 29//16 31//16 32//16 30//16 
s 2
f 31//17 33//17 34//17 32//17 
s 4
f 33//18 35//18 36//18 34//18 
s 2
f 35//19 1//19 4//19 36//19 
s 16
f 25//20 31//20 29//20 27//20 
f 5//20 11//20 9//20 7//20 
f 5//20 15//20 13//20 11//20 
f 31//20 1//20 35//20 33//20 
f 31//20 5//20 2//20 1//20 
f 23//20 21//20 31//20 25//20 
f 21//20 15//20 5//20 31//20 
f 19//20 17//20 15//20 21//20 
f 26//21 28//21 30//21 32//21 
f 6//21 8//21 10//21 12//21 
f 6//21 12//21 14//21 16//21 
f 32//21 34//21 36//21 4//21 
f 32//21 4//21 3//21 6//21 
f 24//21 26//21 32//21 22//21 
f 22//21 32//21 6//21 16//21 
f 20//21 22//21 16//21 18//21 
# 34 polygons

