# 3ds Max Wavefront OBJ Exporter v0.97b - (c)2007 guruware
# File Created: 15.07.2016 20:12:28

mtllib fixedLine006.mtl

#
# object Line006
#

v  -0.4397 0.0000 -1.7496
v  -0.5835 0.0000 -2.9361
v  -0.5835 -1.2000 -2.9361
v  -0.4397 -1.2000 -1.7496
v  0.7081 0.0000 -2.9300
v  0.7081 -1.2000 -2.9300
v  0.6811 0.0000 -2.6603
v  0.6811 -1.2000 -2.6603
v  0.2586 0.0000 -2.4626
v  0.2586 -1.2000 -2.4626
v  0.3935 0.0000 -1.5997
v  0.3935 -1.2000 -1.5997
v  0.7620 0.0000 -1.5277
v  0.7620 -1.2000 -1.5277
v  0.8079 0.0000 -1.5177
v  0.8079 -1.2000 -1.5177
v  0.8515 0.0000 -1.5052
v  0.8515 -1.2000 -1.5052
v  0.8908 0.0000 -1.4879
v  0.8908 -1.2000 -1.4879
v  0.9234 0.0000 -1.4632
v  0.9234 -1.2000 -1.4632
v  0.9473 0.0000 -1.4288
v  0.9473 -1.2000 -1.4288
v  0.9601 0.0000 -1.3822
v  0.9601 -1.2000 -1.3822
v  0.9597 0.0000 -1.3210
v  0.9597 -1.2000 -1.3210
v  0.8429 0.0000 -0.5030
v  0.8429 -1.2000 -0.5030
v  0.8355 0.0000 -0.4752
v  0.8355 -1.2000 -0.4752
v  0.8260 0.0000 -0.4491
v  0.8260 -1.2000 -0.4491
v  0.8124 0.0000 -0.4263
v  0.8124 -1.2000 -0.4263
v  0.7925 0.0000 -0.4086
v  0.7925 -1.2000 -0.4086
v  0.7643 0.0000 -0.3976
v  0.7643 -1.2000 -0.3976
v  0.7257 0.0000 -0.3951
v  0.7257 -1.2000 -0.3951
v  0.6746 0.0000 -0.4027
v  0.6746 -1.2000 -0.4027
v  0.4571 0.0000 -0.4342
v  0.4571 -1.2000 -0.4342
v  0.3771 -0.0000 0.3312
v  0.3771 -1.2000 0.3312
v  0.6113 -0.0000 0.9167
v  0.6113 -1.2000 0.9167
v  0.3146 -0.0000 0.8884
v  0.3146 -1.2000 0.8884
v  0.3412 -0.0000 0.9438
v  0.3412 -1.2000 0.9438
v  0.3639 -0.0000 1.0006
v  0.3639 -1.2000 1.0006
v  0.3785 -0.0000 1.0604
v  0.3785 -1.2000 1.0604
v  0.3812 -0.0000 1.1244
v  0.3812 -1.2000 1.1244
v  0.3679 -0.0000 1.1941
v  0.3679 -1.2000 1.1941
v  0.3346 -0.0000 1.2710
v  0.3346 -1.2000 1.2710
v  0.2774 -0.0000 1.3565
v  0.2774 -1.2000 1.3565
v  0.2820 -0.0000 1.3606
v  0.2820 -1.2000 1.3606
v  0.2919 -0.0000 1.3662
v  0.2919 -1.2000 1.3662
v  0.3054 -0.0000 1.3728
v  0.3054 -1.2000 1.3728
v  0.3212 -0.0000 1.3798
v  0.3212 -1.2000 1.3798
v  0.3378 -0.0000 1.3866
v  0.3378 -1.2000 1.3866
v  0.3536 -0.0000 1.3928
v  0.3536 -1.2000 1.3928
v  0.3672 -0.0000 1.3978
v  0.3672 -1.2000 1.3978
v  0.6296 -0.0000 1.4949
v  0.6296 -1.2000 1.4949
v  0.7663 -0.0000 1.5648
v  0.7663 -1.2000 1.5648
v  0.7983 -0.0000 1.6120
v  0.7983 -1.2000 1.6120
v  0.7464 -0.0000 1.6411
v  0.7464 -1.2000 1.6411
v  0.6316 -0.0000 1.6565
v  0.6316 -1.2000 1.6565
v  0.4750 -0.0000 1.6629
v  0.4750 -1.2000 1.6629
v  0.2973 -0.0000 1.6647
v  0.2973 -1.2000 1.6647
v  0.2316 -0.0000 2.0768
v  0.2316 -1.2000 2.0768
v  0.1378 -0.0000 2.0847
v  0.1378 -1.2000 2.0847
v  0.0436 -0.0000 2.0895
v  0.0436 -1.2000 2.0895
v  -0.0515 -0.0000 2.0882
v  -0.0515 -1.2000 2.0882
v  -0.1479 -0.0000 2.0780
v  -0.1479 -1.2000 2.0780
v  -0.2459 -0.0000 2.0557
v  -0.2459 -1.2000 2.0557
v  -0.3460 -0.0000 2.0183
v  -0.3460 -1.2000 2.0183
v  -0.4486 -0.0000 1.9629
v  -0.4486 -1.2000 1.9629
v  -0.4513 -0.0000 1.9607
v  -0.4513 -1.2000 1.9607
v  -0.4533 -0.0000 1.9590
v  -0.4533 -1.2000 1.9590
v  -0.4547 -0.0000 1.9578
v  -0.4547 -1.2000 1.9578
v  -0.4557 -0.0000 1.9569
v  -0.4557 -1.2000 1.9569
v  -0.4563 -0.0000 1.9562
v  -0.4563 -1.2000 1.9562
v  -0.4567 -0.0000 1.9557
v  -0.4567 -1.2000 1.9557
v  -0.4570 -0.0000 1.9553
v  -0.4570 -1.2000 1.9553
v  -0.4576 -0.0000 1.5494
v  -0.4576 -1.2000 1.5494
v  -0.6012 -0.0000 1.4711
v  -0.6012 -1.2000 1.4711
v  -0.7280 -0.0000 1.3974
v  -0.7280 -1.2000 1.3974
v  -0.8211 -0.0000 1.3326
v  -0.8211 -1.2000 1.3326
v  -0.8637 -0.0000 1.2813
v  -0.8637 -1.2000 1.2813
v  -0.8391 -0.0000 1.2479
v  -0.8391 -1.2000 1.2479
v  -0.7303 -0.0000 1.2368
v  -0.7303 -1.2000 1.2368
v  -0.5205 -0.0000 1.2527
v  -0.5205 -1.2000 1.2527
v  -0.4823 -0.0000 1.2553
v  -0.4823 -1.2000 1.2553
v  -0.4517 -0.0000 1.2572
v  -0.4517 -1.2000 1.2572
v  -0.4273 -0.0000 1.2585
v  -0.4273 -1.2000 1.2585
v  -0.4079 -0.0000 1.2593
v  -0.4079 -1.2000 1.2593
v  -0.3924 -0.0000 1.2597
v  -0.3924 -1.2000 1.2597
v  -0.3793 -0.0000 1.2599
v  -0.3793 -1.2000 1.2599
v  -0.3675 -0.0000 1.2599
v  -0.3675 -1.2000 1.2599
v  -0.3904 -0.0000 1.2099
v  -0.3904 -1.2000 1.2099
v  -0.4101 -0.0000 1.1588
v  -0.4101 -1.2000 1.1588
v  -0.4235 -0.0000 1.1059
v  -0.4235 -1.2000 1.1059
v  -0.4275 -0.0000 1.0501
v  -0.4275 -1.2000 1.0501
v  -0.4187 -0.0000 0.9906
v  -0.4187 -1.2000 0.9906
v  -0.3942 -0.0000 0.9263
v  -0.3942 -1.2000 0.9263
v  -0.3507 -0.0000 0.8564
v  -0.3507 -1.2000 0.8564
v  -0.3496 -0.0000 0.8550
v  -0.3496 -1.2000 0.8550
v  -0.3487 -0.0000 0.8535
v  -0.3487 -1.2000 0.8535
v  -0.3478 -0.0000 0.8519
v  -0.3478 -1.2000 0.8519
v  -0.3470 -0.0000 0.8501
v  -0.3470 -1.2000 0.8501
v  -0.3463 -0.0000 0.8483
v  -0.3463 -1.2000 0.8483
v  -0.3456 -0.0000 0.8465
v  -0.3456 -1.2000 0.8465
v  -0.3449 -0.0000 0.8446
v  -0.3449 -1.2000 0.8446
v  -0.7003 -0.0000 0.8662
v  -0.7003 -1.2000 0.8662
v  -0.5116 -0.0000 0.4078
v  -0.5116 -1.2000 0.4078
v  -0.5251 0.0000 -0.5467
v  -0.5251 -1.2000 -0.5467
v  -0.5979 0.0000 -0.5521
v  -0.5979 -1.2000 -0.5521
v  -0.6673 0.0000 -0.5610
v  -0.6673 -1.2000 -0.5610
v  -0.7301 0.0000 -0.5767
v  -0.7301 -1.2000 -0.5767
v  -0.7830 0.0000 -0.6025
v  -0.7830 -1.2000 -0.6025
v  -0.8228 0.0000 -0.6420
v  -0.8228 -1.2000 -0.6420
v  -0.8461 0.0000 -0.6985
v  -0.8461 -1.2000 -0.6985
v  -0.8497 0.0000 -0.7754
v  -0.8497 -1.2000 -0.7754
v  -0.8433 0.0000 -0.8563
v  -0.8433 -1.2000 -0.8563
v  -0.8388 0.0000 -0.9242
v  -0.8388 -1.2000 -0.9242
v  -0.8359 0.0000 -0.9811
v  -0.8359 -1.2000 -0.9811
v  -0.8343 0.0000 -1.0292
v  -0.8343 -1.2000 -1.0292
v  -0.8335 0.0000 -1.0709
v  -0.8335 -1.2000 -1.0709
v  -0.8335 0.0000 -1.1081
v  -0.8335 -1.2000 -1.1081
v  -0.8337 0.0000 -1.1432
v  -0.8337 -1.2000 -1.1432
v  -0.8082 0.0000 -1.5428
v  -0.8082 -1.2000 -1.5428
v  -0.7750 0.0000 -1.6019
v  -0.7750 -1.2000 -1.6019
v  -0.7395 0.0000 -1.6573
v  -0.7395 -1.2000 -1.6573
v  -0.6990 0.0000 -1.7053
v  -0.6990 -1.2000 -1.7053
v  -0.6512 0.0000 -1.7423
v  -0.6512 -1.2000 -1.7423
v  -0.5937 0.0000 -1.7644
v  -0.5937 -1.2000 -1.7644
v  -0.5240 0.0000 -1.7681
v  -0.5240 -1.2000 -1.7681
# 230 vertices

vn -0.9927 -0.0000 0.1203
vn 0.0047 0.0000 -1.0000
vn 0.9950 -0.0000 0.0995
vn 0.4240 -0.0000 0.9057
vn 0.9880 0.0000 -0.1544
vn 0.1915 0.0000 -0.9815
vn 0.2138 0.0000 -0.9769
vn 0.2444 0.0000 -0.9697
vn 0.3403 0.0000 -0.9403
vn 0.5069 0.0000 -0.8620
vn 0.7214 0.0000 -0.6925
vn 0.9058 0.0000 -0.4237
vn 0.9914 0.0000 -0.1312
vn 0.9973 -0.0000 0.0738
vn 0.9900 -0.0000 0.1414
vn 0.9665 -0.0000 0.2568
vn 0.9542 -0.0000 0.2991
vn 0.9031 -0.0000 0.4294
vn 0.7702 -0.0000 0.6377
vn 0.5218 -0.0000 0.8530
vn 0.2163 -0.0000 0.9763
vn -0.0409 -0.0000 0.9992
vn -0.1467 -0.0000 0.9892
vn -0.1435 -0.0000 0.9897
vn 0.9946 -0.0000 0.1039
vn 0.9284 0.0000 -0.3715
vn -0.0949 -0.0000 0.9955
vn 0.9014 0.0000 -0.4329
vn 0.9158 0.0000 -0.4016
vn 0.9524 0.0000 -0.3047
vn 0.9901 0.0000 -0.1406
vn 0.9973 -0.0000 0.0733
vn 0.9559 -0.0000 0.2938
vn 0.8782 -0.0000 0.4784
vn 0.8312 -0.0000 0.5560
vn 0.6602 0.0000 -0.7511
vn 0.5804 0.0000 -0.8143
vn 0.4658 0.0000 -0.8849
vn 0.4209 0.0000 -0.9071
vn 0.3945 0.0000 -0.9189
vn 0.3741 0.0000 -0.9274
vn 0.3535 0.0000 -0.9354
vn 0.3423 0.0000 -0.9396
vn 0.3471 0.0000 -0.9378
vn 0.4019 0.0000 -0.9157
vn 0.6627 0.0000 -0.7489
vn 0.9730 -0.0000 0.2307
vn 0.3166 -0.0000 0.9486
vn 0.0871 -0.0000 0.9962
vn 0.0254 -0.0000 0.9997
vn 0.0103 -0.0000 0.9999
vn 0.9875 -0.0000 0.1574
vn 0.0831 -0.0000 0.9965
vn 0.0670 -0.0000 0.9978
vn 0.0191 -0.0000 0.9998
vn -0.0594 -0.0000 0.9982
vn -0.1642 -0.0000 0.9864
vn -0.2865 -0.0000 0.9581
vn -0.4135 -0.0000 0.9105
vn -0.4753 -0.0000 0.8798
vn -0.6267 -0.0000 0.7792
vn -0.6331 -0.0000 0.7741
vn -0.6490 -0.0000 0.7608
vn -0.6727 -0.0000 0.7399
vn -0.7085 -0.0000 0.7057
vn -0.7578 -0.0000 0.6524
vn -0.8081 -0.0000 0.5890
vn -0.8304 -0.0000 0.5572
vn -1.0000 -0.0000 0.0015
vn -0.4784 -0.0000 0.8781
vn -0.4907 -0.0000 0.8713
vn -0.5374 -0.0000 0.8433
vn -0.6763 -0.0000 0.7366
vn -0.9996 -0.0000 0.0287
vn -0.4951 0.0000 -0.8688
vn -0.0126 0.0000 -0.9999
vn 0.0755 0.0000 -0.9971
vn 0.0676 0.0000 -0.9977
vn 0.0642 0.0000 -0.9979
vn 0.0564 0.0000 -0.9984
vn 0.0464 0.0000 -0.9989
vn 0.0343 0.0000 -0.9994
vn 0.0212 0.0000 -0.9998
vn 0.0104 0.0000 -0.9999
vn 0.0061 0.0000 -1.0000
vn -0.9095 -0.0000 0.4158
vn -0.9215 -0.0000 0.3884
vn -0.9528 -0.0000 0.3037
vn -0.9874 -0.0000 0.1586
vn -0.9993 0.0000 -0.0376
vn -0.9676 0.0000 -0.2523
vn -0.8958 0.0000 -0.4445
vn -0.8491 0.0000 -0.5282
vn -0.7953 0.0000 -0.6062
vn -0.8227 0.0000 -0.5684
vn -0.8669 0.0000 -0.4985
vn -0.8965 0.0000 -0.4431
vn -0.9159 0.0000 -0.4015
vn -0.9279 0.0000 -0.3727
vn -0.9345 0.0000 -0.3559
vn -0.9366 0.0000 -0.3504
vn 0.0606 -0.0000 0.9982
vn -0.9247 0.0000 -0.3808
vn -0.9999 -0.0000 0.0142
vn -0.0749 -0.0000 0.9972
vn -0.1008 -0.0000 0.9949
vn -0.1846 -0.0000 0.9828
vn -0.3423 -0.0000 0.9396
vn -0.5794 -0.0000 0.8150
vn -0.8307 -0.0000 0.5567
vn -0.9761 -0.0000 0.2171
vn -0.9999 0.0000 -0.0161
vn -0.9974 0.0000 -0.0722
vn -0.9983 0.0000 -0.0586
vn -0.9991 0.0000 -0.0428
vn -0.9997 0.0000 -0.0259
vn -1.0000 0.0000 -0.0099
vn -1.0000 -0.0000 0.0019
vn -1.0000 -0.0000 0.0063
vn -0.9980 0.0000 -0.0636
vn -0.8722 0.0000 -0.4892
vn -0.8572 0.0000 -0.5150
vn -0.8047 0.0000 -0.5937
vn -0.6920 0.0000 -0.7219
vn -0.4906 0.0000 -0.8714
vn -0.2085 0.0000 -0.9780
vn 0.0817 0.0000 -0.9967
vn 0.2144 0.0000 -0.9768
vn 0.0000 1.0000 0.0000
vn 0.0000 -1.0000 -0.0000
# 130 vertex normals

g Line006
usemtl Material__31
s 1
f 1//1 2//1 3//1 4//1 
s 4
f 2//2 5//2 6//2 3//2 
s 2
f 5//3 7//3 8//3 6//3 
s 4
f 7//4 9//4 10//4 8//4 
s 2
f 9//5 11//5 12//5 10//5 
s 4
f 11//6 13//6 14//6 12//6 
s 2
f 13//7 15//8 16//8 14//7 
f 15//8 17//9 18//9 16//8 
f 17//9 19//10 20//10 18//9 
f 19//10 21//11 22//11 20//10 
f 21//11 23//12 24//12 22//11 
f 23//12 25//13 26//13 24//12 
f 25//13 27//14 28//14 26//13 
f 27//14 29//15 30//15 28//14 
s 4
f 29//16 31//17 32//17 30//16 
f 31//17 33//18 34//18 32//17 
f 33//18 35//19 36//19 34//18 
f 35//19 37//20 38//20 36//19 
f 37//20 39//21 40//21 38//20 
f 39//21 41//22 42//22 40//21 
f 41//22 43//23 44//23 42//22 
s 2
f 43//24 45//24 46//24 44//24 
s 4
f 45//25 47//25 48//25 46//25 
s 2
f 47//26 49//26 50//26 48//26 
s 4
f 49//27 51//27 52//27 50//27 
s 2
f 51//28 53//29 54//29 52//28 
f 53//29 55//30 56//30 54//29 
f 55//30 57//31 58//31 56//30 
f 57//31 59//32 60//32 58//31 
f 59//32 61//33 62//33 60//32 
f 61//33 63//34 64//34 62//33 
f 63//34 65//35 66//35 64//34 
s 4
f 65//36 67//37 68//37 66//36 
f 67//37 69//38 70//38 68//37 
f 69//38 71//39 72//39 70//38 
f 71//39 73//40 74//40 72//39 
f 73//40 75//41 76//41 74//40 
f 75//41 77//42 78//42 76//41 
f 77//42 79//43 80//43 78//42 
s 2
f 79//44 81//45 82//45 80//44 
f 81//45 83//46 84//46 82//45 
f 83//46 85//47 86//47 84//46 
f 85//47 87//48 88//48 86//47 
f 87//48 89//49 90//49 88//48 
f 89//49 91//50 92//50 90//49 
f 91//50 93//51 94//51 92//50 
s 4
f 93//52 95//52 96//52 94//52 
s 2
f 95//53 97//54 98//54 96//53 
f 97//54 99//55 100//55 98//54 
f 99//55 101//56 102//56 100//55 
f 101//56 103//57 104//57 102//56 
f 103//57 105//58 106//58 104//57 
f 105//58 107//59 108//59 106//58 
f 107//59 109//60 110//60 108//59 
s 4
f 109//61 111//62 112//62 110//61 
f 111//62 113//63 114//63 112//62 
f 113//63 115//64 116//64 114//63 
f 115//64 117//65 118//65 116//64 
f 117//65 119//66 120//66 118//65 
f 119//66 121//67 122//67 120//66 
f 121//67 123//68 124//68 122//67 
s 2
f 123//69 125//69 126//69 124//69 
s 4
f 125//70 127//71 128//71 126//70 
f 127//71 129//72 130//72 128//71 
f 129//72 131//73 132//73 130//72 
f 131//73 133//74 134//74 132//73 
f 133//74 135//75 136//75 134//74 
f 135//75 137//76 138//76 136//75 
f 137//76 139//77 140//77 138//76 
s 2
f 139//78 141//79 142//79 140//78 
f 141//79 143//80 144//80 142//79 
f 143//80 145//81 146//81 144//80 
f 145//81 147//82 148//82 146//81 
f 147//82 149//83 150//83 148//82 
f 149//83 151//84 152//84 150//83 
f 151//84 153//85 154//85 152//84 
s 4
f 153//86 155//87 156//87 154//86 
f 155//87 157//88 158//88 156//87 
f 157//88 159//89 160//89 158//88 
f 159//89 161//90 162//90 160//89 
f 161//90 163//91 164//91 162//90 
f 163//91 165//92 166//92 164//91 
f 165//92 167//93 168//93 166//92 
s 2
f 167//94 169//95 170//95 168//94 
f 169//95 171//96 172//96 170//95 
f 171//96 173//97 174//97 172//96 
f 173//97 175//98 176//98 174//97 
f 175//98 177//99 178//99 176//98 
f 177//99 179//100 180//100 178//99 
f 179//100 181//101 182//101 180//100 
s 4
f 181//102 183//102 184//102 182//102 
s 2
f 183//103 185//103 186//103 184//103 
s 4
f 185//104 187//104 188//104 186//104 
s 2
f 187//105 189//106 190//106 188//105 
f 189//106 191//107 192//107 190//106 
f 191//107 193//108 194//108 192//107 
f 193//108 195//109 196//109 194//108 
f 195//109 197//110 198//110 196//109 
f 197//110 199//111 200//111 198//110 
f 199//111 201//112 202//112 200//111 
f 201//112 203//113 204//113 202//112 
f 203//113 205//114 206//114 204//113 
f 205//114 207//115 208//115 206//114 
f 207//115 209//116 210//116 208//115 
f 209//116 211//117 212//117 210//116 
f 211//117 213//118 214//118 212//117 
f 213//118 215//119 216//119 214//118 
s 4
f 215//120 217//120 218//120 216//120 
s 2
f 217//121 219//122 220//122 218//121 
f 219//122 221//123 222//123 220//122 
f 221//123 223//124 224//124 222//123 
f 223//124 225//125 226//125 224//124 
f 225//125 227//126 228//126 226//125 
f 227//126 229//127 230//127 228//126 
f 229//127 1//128 4//128 230//127 
s 16
f 47//129 181//129 51//129 49//129 
f 181//129 47//129 185//129 183//129 
f 1//129 9//129 5//129 2//129 
f 83//129 81//129 87//129 85//129 
f 81//129 91//129 89//129 87//129 
f 79//129 93//129 91//129 81//129 
f 77//129 75//129 93//129 79//129 
f 93//129 99//129 97//129 95//129 
f 131//129 137//129 135//129 133//129 
f 129//129 139//129 137//129 131//129 
f 127//129 125//129 139//129 129//129 
f 125//129 143//129 141//129 139//129 
f 125//129 147//129 145//129 143//129 
f 125//129 151//129 149//129 147//129 
f 73//129 71//129 93//129 75//129 
f 125//129 65//129 153//129 151//129 
f 69//129 67//129 93//129 71//129 
f 93//129 103//129 101//129 99//129 
f 5//129 9//129 7//129 
f 1//129 215//129 11//129 9//129 
f 93//129 67//129 105//129 103//129 
f 65//129 107//129 105//129 67//129 
f 65//129 111//129 109//129 107//129 
f 65//129 115//129 113//129 111//129 
f 65//129 119//129 117//129 115//129 
f 65//129 123//129 121//129 119//129 
f 65//129 125//129 123//129 
f 63//129 61//129 153//129 65//129 
f 59//129 57//129 153//129 61//129 
f 55//129 53//129 153//129 57//129 
f 51//129 155//129 153//129 53//129 
f 51//129 159//129 157//129 155//129 
f 51//129 163//129 161//129 159//129 
f 51//129 167//129 165//129 163//129 
f 51//129 171//129 169//129 167//129 
f 51//129 175//129 173//129 171//129 
f 51//129 179//129 177//129 175//129 
f 51//129 181//129 179//129 
f 47//129 45//129 187//129 185//129 
f 215//129 221//129 219//129 217//129 
f 215//129 225//129 223//129 221//129 
f 215//129 229//129 227//129 225//129 
f 215//129 1//129 229//129 
f 213//129 211//129 11//129 215//129 
f 209//129 207//129 11//129 211//129 
f 205//129 203//129 11//129 207//129 
f 201//129 199//129 11//129 203//129 
f 197//129 195//129 11//129 199//129 
f 193//129 191//129 11//129 195//129 
f 189//129 187//129 11//129 191//129 
f 45//129 13//129 11//129 187//129 
f 43//129 15//129 13//129 45//129 
f 43//129 19//129 17//129 15//129 
f 43//129 23//129 21//129 19//129 
f 43//129 27//129 25//129 23//129 
f 43//129 41//129 29//129 27//129 
f 41//129 39//129 31//129 29//129 
f 39//129 37//129 33//129 31//129 
f 35//129 33//129 37//129 
f 48//130 50//130 52//130 182//130 
f 182//130 184//130 186//130 48//130 
f 4//130 3//130 6//130 10//130 
f 84//130 86//130 88//130 82//130 
f 82//130 88//130 90//130 92//130 
f 80//130 82//130 92//130 94//130 
f 78//130 80//130 94//130 76//130 
f 94//130 96//130 98//130 100//130 
f 132//130 134//130 136//130 138//130 
f 130//130 132//130 138//130 140//130 
f 128//130 130//130 140//130 126//130 
f 126//130 140//130 142//130 144//130 
f 126//130 144//130 146//130 148//130 
f 126//130 148//130 150//130 152//130 
f 74//130 76//130 94//130 72//130 
f 126//130 152//130 154//130 66//130 
f 70//130 72//130 94//130 68//130 
f 94//130 100//130 102//130 104//130 
f 6//130 8//130 10//130 
f 4//130 10//130 12//130 216//130 
f 94//130 104//130 106//130 68//130 
f 66//130 68//130 106//130 108//130 
f 66//130 108//130 110//130 112//130 
f 66//130 112//130 114//130 116//130 
f 66//130 116//130 118//130 120//130 
f 66//130 120//130 122//130 124//130 
f 66//130 124//130 126//130 
f 64//130 66//130 154//130 62//130 
f 60//130 62//130 154//130 58//130 
f 56//130 58//130 154//130 54//130 
f 52//130 54//130 154//130 156//130 
f 52//130 156//130 158//130 160//130 
f 52//130 160//130 162//130 164//130 
f 52//130 164//130 166//130 168//130 
f 52//130 168//130 170//130 172//130 
f 52//130 172//130 174//130 176//130 
f 52//130 176//130 178//130 180//130 
f 52//130 180//130 182//130 
f 48//130 186//130 188//130 46//130 
f 216//130 218//130 220//130 222//130 
f 216//130 222//130 224//130 226//130 
f 216//130 226//130 228//130 230//130 
f 216//130 230//130 4//130 
f 214//130 216//130 12//130 212//130 
f 210//130 212//130 12//130 208//130 
f 206//130 208//130 12//130 204//130 
f 202//130 204//130 12//130 200//130 
f 198//130 200//130 12//130 196//130 
f 194//130 196//130 12//130 192//130 
f 190//130 192//130 12//130 188//130 
f 46//130 188//130 12//130 14//130 
f 44//130 46//130 14//130 16//130 
f 44//130 16//130 18//130 20//130 
f 44//130 20//130 22//130 24//130 
f 44//130 24//130 26//130 28//130 
f 44//130 28//130 30//130 42//130 
f 42//130 30//130 32//130 40//130 
f 40//130 32//130 34//130 38//130 
f 36//130 38//130 34//130 
# 223 polygons - 10 triangles

