# 3ds Max Wavefront OBJ Exporter v0.97b - (c)2007 guruware
# File Created: 15.07.2016 20:12:17

mtllib fixedLine001.mtl

#
# object Line001
#

v  -1.5108 -2.4360 0.0000
v  1.4645 -2.4360 0.0000
v  1.4645 -2.4360 1.0000
v  -1.5108 -2.4360 1.0000
v  1.5872 -2.3762 0.0000
v  1.5872 -2.3762 1.0000
v  1.6950 -2.3043 0.0000
v  1.6950 -2.3043 1.0000
v  1.7732 -2.2081 0.0000
v  1.7732 -2.2081 1.0000
v  1.8067 -2.0757 0.0000
v  1.8067 -2.0757 1.0000
v  1.7809 -1.8948 0.0000
v  1.7809 -1.8948 1.0000
v  1.6807 -1.6534 0.0000
v  1.6807 -1.6534 1.0000
v  1.4914 -1.3393 0.0000
v  1.4914 -1.3393 1.0000
v  1.2727 -1.0182 0.0000
v  1.2727 -1.0182 1.0000
v  1.0904 -0.7569 0.0000
v  1.0904 -0.7569 1.0000
v  0.9383 -0.5456 0.0000
v  0.9383 -0.5456 1.0000
v  0.8105 -0.3743 0.0000
v  0.8105 -0.3743 1.0000
v  0.7008 -0.2329 0.0000
v  0.7008 -0.2329 1.0000
v  0.6032 -0.1114 0.0000
v  0.6032 -0.1114 1.0000
v  0.5116 0.0000 0.0000
v  0.5116 0.0000 1.0000
v  0.5239 0.9278 0.0000
v  0.5239 0.9278 1.0000
v  0.5842 0.9330 0.0000
v  0.5842 0.9330 1.0000
v  0.6423 0.9428 0.0000
v  0.6423 0.9428 1.0000
v  0.6964 0.9617 0.0000
v  0.6964 0.9617 1.0000
v  0.7442 0.9941 0.0000
v  0.7442 0.9941 1.0000
v  0.7839 1.0446 0.0000
v  0.7839 1.0446 1.0000
v  0.8131 1.1178 0.0000
v  0.8131 1.1178 1.0000
v  0.8300 1.2181 0.0000
v  0.8300 1.2181 1.0000
v  0.8313 1.3209 0.0000
v  0.8313 1.3209 1.0000
v  0.8166 1.4008 0.0000
v  0.8166 1.4008 1.0000
v  0.7888 1.4617 0.0000
v  0.7888 1.4617 1.0000
v  0.7503 1.5073 0.0000
v  0.7503 1.5073 1.0000
v  0.7039 1.5416 0.0000
v  0.7039 1.5416 1.0000
v  0.6523 1.5683 0.0000
v  0.6523 1.5683 1.0000
v  0.5980 1.5911 0.0000
v  0.5980 1.5911 1.0000
v  -0.5628 1.5986 0.0000
v  -0.5628 1.5986 1.0000
v  -0.6175 1.5676 0.0000
v  -0.6175 1.5676 1.0000
v  -0.6695 1.5342 0.0000
v  -0.6695 1.5342 1.0000
v  -0.7160 1.4961 0.0000
v  -0.7160 1.4961 1.0000
v  -0.7544 1.4509 0.0000
v  -0.7544 1.4509 1.0000
v  -0.7818 1.3962 0.0000
v  -0.7818 1.3962 1.0000
v  -0.7957 1.3297 0.0000
v  -0.7957 1.3297 1.0000
v  -0.7932 1.2490 0.0000
v  -0.7932 1.2490 1.0000
v  -0.7742 1.1677 0.0000
v  -0.7742 1.1677 1.0000
v  -0.7430 1.1006 0.0000
v  -0.7430 1.1006 1.0000
v  -0.7039 1.0467 0.0000
v  -0.7039 1.0467 1.0000
v  -0.6610 1.0054 0.0000
v  -0.6610 1.0054 1.0000
v  -0.6186 0.9758 0.0000
v  -0.6186 0.9758 1.0000
v  -0.5808 0.9571 0.0000
v  -0.5808 0.9571 1.0000
v  -0.5519 0.9485 0.0000
v  -0.5519 0.9485 1.0000
v  -0.5488 0.0138 0.0000
v  -0.5488 0.0138 1.0000
v  -1.5199 -1.5011 0.0000
v  -1.5199 -1.5011 1.0000
v  -1.6236 -1.6416 0.0000
v  -1.6236 -1.6416 1.0000
v  -1.7142 -1.7812 0.0000
v  -1.7142 -1.7812 1.0000
v  -1.7786 -1.9191 0.0000
v  -1.7786 -1.9191 1.0000
v  -1.8035 -2.0543 0.0000
v  -1.8035 -2.0543 1.0000
v  -1.7760 -2.1862 0.0000
v  -1.7760 -2.1862 1.0000
v  -1.6828 -2.3137 0.0000
v  -1.6828 -2.3137 1.0000
# 108 vertices

vn 0.0000 -1.0000 0.0000
vn 0.4381 -0.8989 0.0000
vn 0.4975 -0.8674 0.0000
vn 0.6729 -0.7397 0.0000
vn 0.8936 -0.4488 0.0000
vn 0.9986 -0.0531 0.0000
vn 0.9644 0.2645 0.0000
vn 0.8925 0.4510 0.0000
vn 0.8418 0.5397 0.0000
vn 0.8233 0.5676 0.0000
vn 0.8158 0.5783 0.0000
vn 0.8066 0.5911 0.0000
vn 0.7958 0.6055 0.0000
vn 0.7848 0.6197 0.0000
vn 0.7761 0.6306 0.0000
vn 0.7728 0.6347 0.0000
vn 0.9999 -0.0133 0.0000
vn 0.0870 -0.9962 0.0000
vn 0.1266 -0.9920 0.0000
vn 0.2485 -0.9686 0.0000
vn 0.4488 -0.8936 0.0000
vn 0.6822 -0.7312 0.0000
vn 0.8664 -0.4993 0.0000
vn 0.9627 -0.2705 0.0000
vn 0.9960 -0.0893 0.0000
vn 0.9964 0.0846 0.0000
vn 0.9538 0.3005 0.0000
vn 0.8449 0.5349 0.0000
vn 0.6844 0.7291 0.0000
vn 0.5280 0.8492 0.0000
vn 0.4235 0.9059 0.0000
vn 0.3878 0.9217 0.0000
vn 0.0064 1.0000 0.0000
vn -0.4931 0.8700 0.0000
vn -0.5169 0.8560 0.0000
vn -0.5879 0.8089 0.0000
vn -0.7009 0.7132 0.0000
vn -0.8339 0.5519 0.0000
vn -0.9443 0.3292 0.0000
vn -0.9962 0.0872 0.0000
vn -0.9915 -0.1299 0.0000
vn -0.9453 -0.3262 0.0000
vn -0.8620 -0.5068 0.0000
vn -0.7543 -0.6565 0.0000
vn -0.6351 -0.7724 0.0000
vn -0.5096 -0.8604 0.0000
vn -0.3661 -0.9306 0.0000
vn -0.2857 -0.9583 0.0000
vn -1.0000 -0.0033 0.0000
vn -0.8419 0.5397 0.0000
vn -0.8044 0.5941 0.0000
vn -0.8220 0.5695 0.0000
vn -0.8746 0.4849 0.0000
vn -0.9525 0.3047 0.0000
vn -0.9999 -0.0118 0.0000
vn -0.9137 -0.4065 0.0000
vn -0.7025 -0.7117 0.0000
vn -0.5796 -0.8149 0.0000
vn 0.0000 0.0000 -1.0000
vn 0.0000 0.0000 1.0000
# 60 vertex normals

g Line001
usemtl Material__26
s 1
f 1//1 2//1 3//1 4//1 
s 4
f 2//2 5//3 6//3 3//2 
f 5//3 7//4 8//4 6//3 
f 7//4 9//5 10//5 8//4 
f 9//5 11//6 12//6 10//5 
f 11//6 13//7 14//7 12//6 
f 13//7 15//8 16//8 14//7 
f 15//8 17//9 18//9 16//8 
f 17//9 19//10 20//10 18//9 
f 19//10 21//11 22//11 20//10 
f 21//11 23//12 24//12 22//11 
f 23//12 25//13 26//13 24//12 
f 25//13 27//14 28//14 26//13 
f 27//14 29//15 30//15 28//14 
f 29//15 31//16 32//16 30//15 
s 2
f 31//17 33//17 34//17 32//17 
s 4
f 33//18 35//19 36//19 34//18 
f 35//19 37//20 38//20 36//19 
f 37//20 39//21 40//21 38//20 
f 39//21 41//22 42//22 40//21 
f 41//22 43//23 44//23 42//22 
f 43//23 45//24 46//24 44//23 
f 45//24 47//25 48//25 46//24 
f 47//25 49//26 50//26 48//25 
f 49//26 51//27 52//27 50//26 
f 51//27 53//28 54//28 52//27 
f 53//28 55//29 56//29 54//28 
f 55//29 57//30 58//30 56//29 
f 57//30 59//31 60//31 58//30 
f 59//31 61//32 62//32 60//31 
s 2
f 61//33 63//33 64//33 62//33 
s 4
f 63//34 65//35 66//35 64//34 
f 65//35 67//36 68//36 66//35 
f 67//36 69//37 70//37 68//36 
f 69//37 71//38 72//38 70//37 
f 71//38 73//39 74//39 72//38 
f 73//39 75//40 76//40 74//39 
f 75//40 77//41 78//41 76//40 
f 77//41 79//42 80//42 78//41 
f 79//42 81//43 82//43 80//42 
f 81//43 83//44 84//44 82//43 
f 83//44 85//45 86//45 84//44 
f 85//45 87//46 88//46 86//45 
f 87//46 89//47 90//47 88//46 
f 89//47 91//48 92//48 90//47 
s 2
f 91//49 93//49 94//49 92//49 
s 4
f 93//50 95//50 96//50 94//50 
s 2
f 95//51 97//52 98//52 96//51 
f 97//52 99//53 100//53 98//52 
f 99//53 101//54 102//54 100//53 
f 101//54 103//55 104//55 102//54 
f 103//55 105//56 106//56 104//55 
f 105//56 107//57 108//57 106//56 
f 107//57 1//58 4//58 108//57 
s 16
f 107//59 105//59 2//59 1//59 
f 103//59 101//59 2//59 105//59 
f 99//59 97//59 2//59 101//59 
f 95//59 93//59 2//59 97//59 
f 93//59 7//59 5//59 2//59 
f 93//59 11//59 9//59 7//59 
f 93//59 15//59 13//59 11//59 
f 93//59 19//59 17//59 15//59 
f 93//59 23//59 21//59 19//59 
f 93//59 27//59 25//59 23//59 
f 93//59 31//59 29//59 27//59 
f 93//59 91//59 33//59 31//59 
f 61//59 67//59 65//59 63//59 
f 61//59 71//59 69//59 67//59 
f 61//59 75//59 73//59 71//59 
f 61//59 79//59 77//59 75//59 
f 61//59 83//59 81//59 79//59 
f 61//59 87//59 85//59 83//59 
f 61//59 91//59 89//59 87//59 
f 61//59 59//59 33//59 91//59 
f 59//59 57//59 35//59 33//59 
f 55//59 53//59 35//59 57//59 
f 51//59 49//59 35//59 53//59 
f 47//59 45//59 35//59 49//59 
f 43//59 37//59 35//59 45//59 
f 41//59 39//59 37//59 43//59 
f 108//60 4//60 3//60 106//60 
f 104//60 106//60 3//60 102//60 
f 100//60 102//60 3//60 98//60 
f 96//60 98//60 3//60 94//60 
f 94//60 3//60 6//60 8//60 
f 94//60 8//60 10//60 12//60 
f 94//60 12//60 14//60 16//60 
f 94//60 16//60 18//60 20//60 
f 94//60 20//60 22//60 24//60 
f 94//60 24//60 26//60 28//60 
f 94//60 28//60 30//60 32//60 
f 94//60 32//60 34//60 92//60 
f 62//60 64//60 66//60 68//60 
f 62//60 68//60 70//60 72//60 
f 62//60 72//60 74//60 76//60 
f 62//60 76//60 78//60 80//60 
f 62//60 80//60 82//60 84//60 
f 62//60 84//60 86//60 88//60 
f 62//60 88//60 90//60 92//60 
f 62//60 92//60 34//60 60//60 
f 60//60 34//60 36//60 58//60 
f 56//60 58//60 36//60 54//60 
f 52//60 54//60 36//60 50//60 
f 48//60 50//60 36//60 46//60 
f 44//60 46//60 36//60 38//60 
f 42//60 44//60 38//60 40//60 
# 106 polygons

