# 3ds Max Wavefront OBJ Exporter v0.97b - (c)2007 guruware
# File Created: 15.07.2016 20:12:27

mtllib fixedLine005.mtl

#
# object Line005
#

v  -1.0888 2.3192 0.0000
v  -0.9719 -0.7910 0.0000
v  -0.9719 -0.7910 1.0000
v  -1.0888 2.3192 1.0000
v  -0.2169 -0.6472 0.0000
v  -0.2169 -0.6472 1.0000
v  -0.3697 -2.1214 0.0000
v  -0.3697 -2.1214 1.0000
v  0.2685 -2.1214 0.0000
v  0.2685 -2.1214 1.0000
v  1.0596 0.5124 0.0000
v  1.0596 0.5124 1.0000
v  0.3674 0.4854 0.0000
v  0.3674 0.4854 1.0000
v  0.9517 2.3641 0.0000
v  0.9517 2.3641 1.0000
# 16 vertices

vn -0.9993 -0.0375 0.0000
vn 0.1871 -0.9823 0.0000
vn -0.9947 0.1031 0.0000
vn 0.0000 -1.0000 0.0000
vn 0.9577 -0.2876 0.0000
vn -0.0389 0.9992 0.0000
vn 0.9549 -0.2970 0.0000
vn -0.0220 0.9998 0.0000
vn 0.0000 0.0000 -1.0000
vn 0.0000 0.0000 1.0000
# 10 vertex normals

g Line005
usemtl Material__30
s 1
f 1//1 2//1 3//1 4//1 
s 4
f 2//2 5//2 6//2 3//2 
s 2
f 5//3 7//3 8//3 6//3 
s 4
f 7//4 9//4 10//4 8//4 
s 2
f 9//5 11//5 12//5 10//5 
s 4
f 11//6 13//6 14//6 12//6 
s 2
f 13//7 15//7 16//7 14//7 
s 4
f 15//8 1//8 4//8 16//8 
s 16
f 9//9 5//9 13//9 11//9 
f 13//9 2//9 1//9 15//9 
f 13//9 5//9 2//9 
f 9//9 7//9 5//9 
f 10//10 12//10 14//10 6//10 
f 14//10 16//10 4//10 3//10 
f 14//10 3//10 6//10 
f 10//10 6//10 8//10 
# 12 polygons - 4 triangles

